<svg width="24" height="24" viewBox="0 0 24 24" fill="none" xmlns="http://www.w3.org/2000/svg">
<g clip-path="url(#clip0_330_11)">
<path d="M7.34881 7.156C6.29481 8.136 5.32781 9.214 4.46081 10.366C2.58581 12.656 1.84981 15.676 2.45981 18.571C3.29581 21.361 5.61581 23.457 8.47781 24.001H8.49381L8.48381 23.992C6.94281 23.312 5.89681 21.846 5.75981 20.168C5.84981 18.441 6.76181 16.863 8.21081 15.922C7.97281 16.502 8.03081 17.162 8.36081 17.692C8.73681 18.217 9.38281 18.469 10.0168 18.338C10.9188 18.084 11.4478 17.148 11.1938 16.246C11.1038 15.93 10.9238 15.644 10.6778 15.428C9.65781 14.598 9.14481 13.295 9.32681 11.992C9.50181 11.302 9.88381 10.678 10.4238 10.207C10.0188 11.287 11.1608 12.353 11.9288 12.877C13.2898 13.693 14.5998 14.59 15.8548 15.563C17.2258 16.643 17.9728 18.333 17.8558 20.063C17.5478 21.903 16.2448 23.423 14.4698 23.993C18.0218 23.203 21.6828 20.383 21.7528 16.383C21.6828 13.183 19.7718 10.311 16.8508 9.003H16.7208C16.7858 9.16 16.8168 9.329 16.8108 9.499C16.8088 9.519 16.8128 9.539 16.8108 9.559C16.5888 10.469 15.6708 11.029 14.7578 10.807C14.3938 10.717 14.0678 10.512 13.8338 10.217C12.6628 8.717 13.8338 7.01 14.0298 5.36C14.1498 3.25 13.1858 1.233 11.4748 0C12.3308 1.427 11.1908 3.3 10.3608 4.366C9.52881 5.432 8.32681 6.226 7.34881 7.156Z" fill="white"/>
</g>
<defs>
<clipPath id="clip0_330_11">
<rect width="24" height="24" fill="white"/>
</clipPath>
</defs>
</svg>
