<svg width="24" height="24" viewBox="0 0 24 24" fill="none" xmlns="http://www.w3.org/2000/svg">
<path d="M20.7721 3.36426C20.6782 3.25037 20.5603 3.15865 20.4269 3.09568C20.2934 3.0327 20.1477 3.00003 20.0001 3H6.00008C5.73486 3 5.48051 3.10536 5.29297 3.29289C5.10543 3.48043 5.00008 3.73478 5.00008 4C5.00008 4.26522 5.10543 4.51957 5.29297 4.70711C5.48051 4.89464 5.73486 5 6.00008 5H18.7862L18.0053 9H5.00008C4.73486 9 4.48051 9.10536 4.29297 9.29289C4.10543 9.48043 4.00008 9.73478 4.00008 10C4.00008 10.2652 4.10543 10.5196 4.29297 10.7071C4.48051 10.8946 4.73486 11 5.00008 11H17.6148L16.4522 16.9551L10.129 18.9517L4.71883 17.2524L4.92244 16.1875C4.97217 15.9269 4.91635 15.6573 4.76728 15.4379C4.6182 15.2185 4.38807 15.0673 4.12752 15.0176C3.86696 14.9679 3.59733 15.0237 3.37792 15.1727C3.15852 15.3218 3.00733 15.5519 2.9576 15.8125L2.58748 17.7524C2.54163 17.9933 2.58581 18.2426 2.71164 18.4531C2.83748 18.6635 3.03619 18.8204 3.27008 18.894L9.83016 20.9541C10.0258 21.0155 10.2356 21.0153 10.4312 20.9536L17.6212 18.6836C17.7926 18.6294 17.9462 18.53 18.0659 18.3958C18.1855 18.2617 18.2669 18.0978 18.3013 17.9214L20.9815 4.19141C21.0098 4.04662 21.0057 3.89738 20.9694 3.75438C20.9332 3.61137 20.8658 3.47815 20.7721 3.36426V3.36426Z" fill="white"/>
</svg>
