<svg width="35" height="35" viewBox="0 0 35 35" fill="none" xmlns="http://www.w3.org/2000/svg">
<path d="M22.9199 13.42H12.0799C10.3779 13.3537 8.76763 12.6309 7.58687 11.4032C6.40612 10.1755 5.74658 8.53834 5.74658 6.835C5.74658 5.13166 6.40612 3.49448 7.58687 2.26681C8.76763 1.03914 10.3779 0.31634 12.0799 0.25H22.9199C24.622 0.31634 26.2322 1.03914 27.413 2.26681C28.5937 3.49448 29.2533 5.13166 29.2533 6.835C29.2533 8.53834 28.5937 10.1755 27.413 11.4032C26.2322 12.6309 24.622 13.3537 22.9199 13.42ZM12.0799 2.75C11.0315 2.80189 10.0431 3.25492 9.31941 4.01532C8.59572 4.77572 8.1921 5.78527 8.1921 6.835C8.1921 7.88473 8.59572 8.89428 9.31941 9.65468C10.0431 10.4151 11.0315 10.8681 12.0799 10.92H22.9199C23.9684 10.8681 24.9567 10.4151 25.6804 9.65468C26.4041 8.89428 26.8077 7.88473 26.8077 6.835C26.8077 5.78527 26.4041 4.77572 25.6804 4.01532C24.9567 3.25492 23.9684 2.80189 22.9199 2.75H12.0799Z" fill="white"/>
<path d="M17.42 24.0799H12.08C10.3349 24.0799 8.66123 23.3867 7.42724 22.1527C6.19325 20.9187 5.5 19.245 5.5 17.4999C5.5 15.7548 6.19325 14.0811 7.42724 12.8472C8.66123 11.6132 10.3349 10.9199 12.08 10.9199C12.4115 10.9199 12.7295 11.0516 12.9639 11.286C13.1983 11.5205 13.33 11.8384 13.33 12.1699C13.33 12.5014 13.1983 12.8194 12.9639 13.0538C12.7295 13.2882 12.4115 13.4199 12.08 13.4199C10.9979 13.4199 9.96015 13.8498 9.195 14.6149C8.42986 15.3801 8 16.4178 8 17.4999C8 18.582 8.42986 19.6198 9.195 20.3849C9.96015 21.1501 10.9979 21.5799 12.08 21.5799H16.17V12.1699C16.17 11.8384 16.3017 11.5205 16.5361 11.286C16.7705 11.0516 17.0885 10.9199 17.42 10.9199C17.7515 10.9199 18.0695 11.0516 18.3039 11.286C18.5383 11.5205 18.67 11.8384 18.67 12.1699V22.8299C18.67 23.1614 18.5383 23.4794 18.3039 23.7138C18.0695 23.9482 17.7515 24.0799 17.42 24.0799Z" fill="white"/>
<path d="M12.1601 34.75C11.2738 34.7845 10.3896 34.6398 9.56053 34.3244C8.73147 34.009 7.9746 33.5295 7.33529 32.9147C6.69597 32.2998 6.18737 31.5622 5.83996 30.746C5.49255 29.9299 5.31348 29.052 5.31348 28.165C5.31348 27.2779 5.49255 26.4 5.83996 25.5839C6.18737 24.7677 6.69597 24.0301 7.33529 23.4152C7.9746 22.8004 8.73147 22.3209 9.56053 22.0055C10.3896 21.6901 11.2738 21.5454 12.1601 21.58C12.4917 21.58 12.8096 21.7116 13.044 21.9461C13.2784 22.1805 13.4101 22.4984 13.4101 22.83C13.4101 23.1615 13.2784 23.4794 13.044 23.7138C12.8096 23.9483 12.4917 24.08 12.1601 24.08C11.3508 24.078 10.559 24.3162 9.88514 24.7644C9.21123 25.2126 8.68544 25.8507 8.37435 26.5978C8.06325 27.345 7.98083 28.1677 8.13751 28.9617C8.29419 29.7558 8.68294 30.4855 9.25453 31.0585C9.82613 31.6315 10.5549 32.022 11.3485 32.1806C12.1422 32.3392 12.9651 32.2588 13.713 31.9496C14.4609 31.6403 15.1003 31.1161 15.5501 30.4433C16 29.7705 16.2401 28.9793 16.2401 28.17V22.83C16.2401 22.4984 16.3718 22.1805 16.6063 21.9461C16.8407 21.7116 17.1586 21.58 17.4901 21.58C17.8217 21.58 18.1396 21.7116 18.374 21.9461C18.6084 22.1805 18.7401 22.4984 18.7401 22.83V28.17C18.7375 29.9143 18.0434 31.5864 16.81 32.8198C15.5766 34.0532 13.9044 34.7473 12.1601 34.75Z" fill="white"/>
<path d="M22.8302 24.2499C21.511 24.2499 20.2214 23.8587 19.1245 23.1258C18.0276 22.3929 17.1727 21.3512 16.6679 20.1324C16.163 18.9136 16.031 17.5725 16.2883 16.2787C16.5457 14.9848 17.1809 13.7963 18.1138 12.8635C19.0466 11.9307 20.2351 11.2954 21.5289 11.0381C22.8228 10.7807 24.1639 10.9128 25.3827 11.4176C26.6014 11.9225 27.6432 12.7774 28.3761 13.8743C29.109 14.9711 29.5002 16.2607 29.5002 17.5799C29.5002 18.4558 29.3276 19.3232 28.9924 20.1324C28.6572 20.9417 28.1659 21.677 27.5466 22.2963C26.9272 22.9157 26.1919 23.407 25.3827 23.7422C24.5734 24.0774 23.7061 24.2499 22.8302 24.2499V24.2499ZM22.8302 13.4199C22.005 13.4199 21.1984 13.6647 20.5124 14.1234C19.8264 14.582 19.292 15.2339 18.9766 15.9964C18.6613 16.759 18.5793 17.598 18.741 18.4071C18.9027 19.2163 19.3009 19.9593 19.8851 20.5421C20.4693 21.1249 21.2132 21.5212 22.0228 21.681C22.8323 21.8408 23.6711 21.7568 24.4329 21.4396C25.1947 21.1225 25.8453 20.5864 26.3023 19.8994C26.7593 19.2123 27.0021 18.4051 27.0002 17.5799C26.9975 16.4757 26.557 15.4176 25.7753 14.6377C24.9935 13.8579 23.9344 13.4199 22.8302 13.4199Z" fill="white"/>
<path d="M17.4202 13.42C17.2561 13.4187 17.0938 13.3851 16.9426 13.321C16.7915 13.257 16.6544 13.1638 16.5392 13.0468C16.4241 12.9298 16.3331 12.7913 16.2715 12.6391C16.2099 12.487 16.1789 12.3242 16.1802 12.16L16.2602 1.49C16.2628 1.16194 16.3943 0.848058 16.6263 0.616077C16.8583 0.384096 17.1722 0.252614 17.5002 0.25V0.25C17.6644 0.251308 17.8267 0.284937 17.9778 0.348967C18.129 0.412997 18.266 0.506173 18.3812 0.623176C18.4963 0.740179 18.5873 0.878717 18.6489 1.03088C18.7105 1.18304 18.7415 1.34585 18.7402 1.51L18.6602 12.18C18.6551 12.5073 18.5228 12.8197 18.2913 13.0511C18.0599 13.2825 17.7475 13.4148 17.4202 13.42V13.42Z" fill="white"/>
</svg>
