<svg width="24" height="24" viewBox="0 0 24 24" fill="none" xmlns="http://www.w3.org/2000/svg">
<path d="M14.4778 14.8829C13.7259 14.9562 12.9684 14.8183 12.2906 14.4846C12.137 14.3618 12.0103 14.2088 11.9182 14.035C11.8261 13.8613 11.7706 13.6705 11.7551 13.4745C11.7548 13.4451 11.7487 13.4161 11.7371 13.3892C11.7255 13.3622 11.7087 13.3379 11.6876 13.3174C11.6665 13.297 11.6416 13.281 11.6143 13.2703C11.587 13.2596 11.5578 13.2544 11.5285 13.255C11.2119 13.2512 10.8954 13.252 10.5788 13.2546C10.5235 13.249 10.4682 13.2654 10.4249 13.3002C10.3816 13.3351 10.3537 13.3856 10.3474 13.4409C10.3294 13.7848 10.3875 14.1285 10.5177 14.4474C10.6479 14.7662 10.8469 15.0524 11.1005 15.2854C11.7407 15.785 12.518 16.0774 13.3288 16.1236C14.1735 16.2216 15.0284 16.1853 15.8618 16.0161C16.5018 15.8967 17.0885 15.5805 17.5401 15.1117C17.7897 14.8039 17.957 14.4376 18.0263 14.0474C18.0956 13.6572 18.0645 13.2558 17.9361 12.8809C17.8282 12.6166 17.6612 12.3805 17.4479 12.1908C17.2346 12.0011 16.9807 11.8627 16.7057 11.7863C15.4249 11.3369 14.0414 11.3709 12.7357 11.0294C12.509 10.9581 12.232 10.8806 12.131 10.6407C12.0726 10.4718 12.0686 10.2888 12.1196 10.1176C12.1706 9.94631 12.2739 9.79533 12.4152 9.68587C12.8251 9.45158 13.292 9.33535 13.7639 9.35006C14.4045 9.28976 15.0502 9.38215 15.6481 9.61965C15.8277 9.72528 15.9822 9.86875 16.1008 10.0401C16.2194 10.2114 16.2993 10.4065 16.3349 10.6118C16.3366 10.6724 16.3609 10.7302 16.403 10.7738C16.4451 10.8174 16.502 10.8437 16.5625 10.8475C16.8768 10.8539 17.1912 10.8492 17.5056 10.8496C17.5601 10.8562 17.6151 10.8428 17.6606 10.812C17.706 10.7811 17.7388 10.735 17.7529 10.6819C17.7557 10.2579 17.6477 9.84056 17.4395 9.47116C17.2314 9.10177 16.9304 8.79316 16.5662 8.57591C15.5613 8.1121 14.4457 7.94141 13.348 8.08348V8.0834C12.5438 8.11637 11.7754 8.42512 11.1719 8.95778C10.8948 9.25639 10.7072 9.62681 10.6304 10.0268C10.5536 10.4269 10.5907 10.8404 10.7375 11.2204C10.8518 11.475 11.0199 11.7017 11.2302 11.885C11.4405 12.0683 11.6881 12.2038 11.9559 12.2822C13.2324 12.7433 14.6314 12.5953 15.9203 13.003C16.1715 13.0882 16.464 13.2185 16.5409 13.4981C16.5823 13.6656 16.5791 13.841 16.5318 14.007C16.4845 14.1729 16.3947 14.3237 16.2713 14.4442C15.7352 14.7772 15.107 14.9309 14.4778 14.8829V14.8829ZM20.2967 6.43752C17.8045 5.02819 15.3117 3.62013 12.8183 2.21334C12.5681 2.07345 12.2862 2 11.9996 2C11.713 2 11.4311 2.07345 11.1809 2.21334C8.69726 3.61588 6.21344 5.01834 3.72949 6.42074C3.48785 6.55245 3.28584 6.74642 3.14444 6.98252C3.00303 7.21862 2.92736 7.48825 2.92529 7.76345V16.2377C2.92927 16.5179 3.00901 16.7918 3.15605 17.0304C3.30309 17.2689 3.51196 17.4632 3.76049 17.5927C4.474 17.9811 5.16723 18.409 5.89367 18.7715C6.31296 18.9957 6.77865 19.1192 7.2539 19.1322C7.72916 19.1453 8.20093 19.0476 8.63189 18.8468C8.95436 18.6448 9.21676 18.36 9.39173 18.0221C9.5667 17.6842 9.64785 17.3056 9.62671 16.9256C9.63226 14.129 9.62756 11.3321 9.62884 8.53538C9.63371 8.5048 9.63206 8.47354 9.62401 8.44365C9.61596 8.41375 9.60168 8.38589 9.58211 8.3619C9.56254 8.33791 9.53813 8.31832 9.51046 8.30441C9.48279 8.29051 9.4525 8.28261 9.42157 8.28123C9.10418 8.2761 8.78631 8.27823 8.46893 8.28038C8.43955 8.27774 8.40993 8.28135 8.38204 8.29096C8.35414 8.30057 8.32859 8.31597 8.30706 8.33614C8.28553 8.35632 8.26851 8.38082 8.25712 8.40803C8.24572 8.43525 8.24021 8.46457 8.24093 8.49406C8.23666 11.2728 8.24179 14.0524 8.23837 16.8315C8.2391 17.0234 8.18115 17.2108 8.0723 17.3688C7.96344 17.5267 7.80889 17.6476 7.62937 17.7153C7.42265 17.7764 7.20536 17.7932 6.9917 17.7646C6.77804 17.736 6.57282 17.6626 6.38944 17.5493C5.72843 17.176 5.06743 16.8027 4.40644 16.4294C4.36265 16.4087 4.32626 16.375 4.30219 16.3329C4.27811 16.2908 4.26751 16.2424 4.2718 16.1941C4.2718 13.3982 4.2718 10.6025 4.2718 7.80687C4.26721 7.75249 4.27991 7.69804 4.30811 7.65131C4.33631 7.60458 4.37855 7.56796 4.4288 7.54667C6.90434 6.15242 9.37941 4.7567 11.854 3.35952C11.897 3.33017 11.9478 3.3145 11.9999 3.31458C12.0519 3.31466 12.1027 3.33047 12.1456 3.35995C14.6211 4.75465 17.0964 6.14982 19.5717 7.54549C19.6217 7.56737 19.6636 7.60432 19.6916 7.65119C19.7196 7.69806 19.7322 7.7525 19.7278 7.80691C19.7274 10.6023 19.7271 13.3979 19.7269 16.1938C19.7313 16.2422 19.721 16.2909 19.6972 16.3334C19.6735 16.3759 19.6375 16.4103 19.594 16.432C17.1564 17.8104 14.7174 19.1867 12.2772 20.5611C12.1606 20.6261 12.0226 20.7306 11.8863 20.6519C11.2472 20.2901 10.6159 19.9143 9.97894 19.5492C9.94638 19.5243 9.90713 19.5096 9.86621 19.5072C9.82529 19.5047 9.78457 19.5145 9.74926 19.5354C9.4687 19.6998 9.17339 19.8376 8.86718 19.947C8.72912 20.0029 8.55926 20.0188 8.46423 20.1469C8.58536 20.2787 8.73211 20.3844 8.8955 20.4575C9.64044 20.8888 10.3858 21.3198 11.1315 21.7503C11.3781 21.9052 11.6618 21.9912 11.9529 21.9993C12.2441 22.0074 12.532 21.9373 12.7869 21.7963C15.271 20.3957 17.7549 18.9944 20.2387 17.5924C20.4871 17.4627 20.6958 17.2684 20.8429 17.03C20.9899 16.7915 21.0699 16.5178 21.0744 16.2377V7.76345C21.0723 7.49369 20.9994 7.2292 20.8629 6.99649C20.7264 6.76379 20.5312 6.57103 20.2968 6.43752H20.2967Z" fill="white"/>
</svg>
