<svg width="24" height="24" viewBox="0 0 24 24" fill="none" xmlns="http://www.w3.org/2000/svg">
<path d="M20.8346 15.8438L18.8658 13.4063C18.5846 13.0781 18.4908 13.125 18.3033 13.1719L15.9127 13.5469C15.6783 13.5938 15.5377 13.6875 15.6783 13.875L17.4127 16.3125L12.2096 17.5781L8.08456 10.6875C7.94393 10.4531 7.89706 10.3594 7.52206 10.3594L4.10018 10.6406C3.91268 10.6406 3.67831 10.7344 3.86581 11.25L7.42831 18.8906C7.52206 19.0781 7.75643 19.4531 8.31893 19.3125L11.8814 18.375L13.8033 21.75C14.0846 22.1719 14.2721 22.0781 14.7408 21.9844L20.2721 19.9688C20.5064 19.875 20.6471 19.8281 20.5064 19.5938L18.3971 16.7344L20.6939 16.125C20.9283 16.0781 20.9283 15.9375 20.7877 15.8438H20.8346ZM11.4127 17.7656L8.31893 18.5156L8.13143 18.4688C6.98645 16.0129 5.83019 13.5598 4.66268 11.1094L7.47518 10.8281C8.78737 13.1252 10.0999 15.4221 11.4127 17.7188V17.7656ZM19.6158 19.3125C19.6627 19.3594 19.7096 19.4063 19.5689 19.4531L14.5533 21.1406C14.4596 21.1875 14.3658 21.1875 14.2721 21.0469L12.5846 18.1875L17.6471 16.875C17.7877 16.8281 17.7877 16.8281 17.8814 16.9219L19.6158 19.3125ZM19.8971 15.7031L17.9752 16.1719L16.4283 14.1094C16.3814 14.0625 16.3346 14.0156 16.4752 13.9688L18.3502 13.6406C18.4439 13.6406 18.5377 13.5938 18.6314 13.7344L20.0846 15.5625C20.1314 15.6563 20.0377 15.7031 19.8971 15.7031Z" fill="white"/>
</svg>
