<svg width="24" height="24" viewBox="0 0 24 24" fill="none" xmlns="http://www.w3.org/2000/svg">
<path d="M11.1031 10.4379C10.7972 10.6145 10.5505 10.8779 10.3943 11.1947C10.2381 11.5115 10.1793 11.8675 10.2254 12.2177C10.2715 12.5679 10.4204 12.8966 10.6533 13.1622C10.8862 13.4277 11.1926 13.6183 11.5338 13.7097C11.875 13.8011 12.2357 13.7893 12.5702 13.6757C12.9046 13.5622 13.1979 13.352 13.413 13.0717C13.628 12.7915 13.7551 12.4538 13.7781 12.1013C13.8012 11.7488 13.7193 11.3974 13.5427 11.0915C13.3058 10.6814 12.9157 10.3821 12.4582 10.2595C12.0007 10.137 11.5133 10.2011 11.1031 10.4379V10.4379ZM19.1078 12.3756C18.9905 12.2416 18.8668 12.1073 18.7366 11.9725C18.8276 11.877 18.9156 11.7815 19.0006 11.686C20.6064 9.88177 21.2842 8.07233 20.6562 6.9845C20.054 5.9415 18.2628 5.63068 16.0203 6.06671C15.7994 6.10992 15.5797 6.15867 15.3613 6.21295C15.3195 6.06879 15.275 5.92546 15.2278 5.78295C14.4671 3.49042 13.2382 1.99921 11.9821 2C10.7777 2.00055 9.61367 3.39709 8.87108 5.5575C8.79802 5.77063 8.73043 5.98553 8.66832 6.20221C8.52227 6.16638 8.3756 6.13328 8.22832 6.10291C5.86232 5.61713 3.95665 5.93707 3.32988 7.02551C2.72888 8.06927 3.35741 9.77533 4.85839 11.4976C5.00725 11.668 5.16032 11.8346 5.31761 11.9974C5.13219 12.1884 4.95661 12.3793 4.79296 12.5691C3.32836 14.2671 2.73577 15.9453 3.3358 16.9845C3.95549 18.058 5.83434 18.4089 8.1212 17.9589C8.30653 17.9221 8.49084 17.8808 8.67412 17.8349C8.74126 18.0692 8.81491 18.3016 8.89507 18.5319C9.63439 20.6489 10.7919 22.0005 11.9921 22.0001C13.2315 21.9993 14.474 20.5472 15.2268 18.3413C15.2863 18.167 15.3425 17.986 15.3959 17.7996C15.6326 17.8585 15.8709 17.9107 16.1107 17.9564C18.3141 18.3732 20.0632 18.0454 20.6622 17.0054C21.2807 15.9311 20.643 14.1293 19.1077 12.3756H19.1078ZM4.07027 7.45184C4.45613 6.78184 6.01351 6.52045 8.05635 6.93984C8.18691 6.96669 8.3197 6.99669 8.45473 7.02984C8.25529 7.91211 8.11456 8.80662 8.03347 9.70751C7.29637 10.2261 6.5936 10.7918 5.92958 11.4011C5.78328 11.2498 5.64089 11.0948 5.5024 10.9362L5.50246 10.9363C4.21639 9.46057 3.70808 8.08081 4.07027 7.45184ZM7.95693 13.1799C7.44637 12.7933 6.97188 12.3973 6.54122 11.9989C6.97158 11.6031 7.44637 11.2083 7.95589 10.8228C7.93758 11.2155 7.92851 11.6086 7.92867 12.002C7.92894 12.3948 7.93836 12.7874 7.95693 13.1799V13.1799ZM7.95632 17.1205C7.08958 17.3133 6.19478 17.3448 5.31661 17.2137C5.07588 17.1949 4.84154 17.127 4.62809 17.0141C4.41464 16.9013 4.22661 16.7458 4.07561 16.5574C3.71154 15.9267 4.18737 14.5794 5.43993 13.1271C5.5974 12.9451 5.76004 12.7679 5.92784 12.5954C6.59197 13.2079 7.29587 13.7759 8.03496 14.2955C8.11716 15.2079 8.25954 16.1138 8.46117 17.0075C8.29385 17.0493 8.12557 17.087 7.95632 17.1205ZM15.0575 9.08118C14.7221 8.86985 14.3825 8.6653 14.0388 8.46753C13.7006 8.27286 13.3584 8.08551 13.012 7.90546C13.605 7.65613 14.188 7.44318 14.7507 7.26965C14.8833 7.86795 14.9857 8.47256 15.0575 9.08118V9.08118ZM9.67908 5.83521C10.3153 3.98407 11.2567 2.85468 11.9826 2.85437C12.7557 2.854 13.7601 4.07263 14.4169 6.052C14.4596 6.18103 14.4999 6.31079 14.5379 6.44128C13.675 6.70891 12.8308 7.03336 12.0108 7.41248C11.1941 7.0289 10.3526 6.70084 9.49177 6.43054C9.54931 6.23059 9.61175 6.03215 9.67908 5.83521ZM9.27871 7.259C9.86569 7.44379 10.443 7.65807 11.0084 7.901C10.3078 8.26253 9.62537 8.65633 8.96102 9.0824C9.04128 8.4444 9.14808 7.83313 9.27871 7.259ZM8.96248 14.9197C9.29378 15.1318 9.62992 15.336 9.97091 15.5324C10.3187 15.7327 10.6712 15.9245 11.0283 16.108C10.4586 16.3593 9.87631 16.5812 9.28383 16.7729C9.15169 16.1908 9.04372 15.5688 8.96248 14.9197ZM14.4182 18.0652C14.1521 18.9123 13.7324 19.7032 13.1801 20.3984L13.18 20.3985C13.0435 20.5976 12.8676 20.7667 12.6632 20.8952C12.4588 21.0236 12.2302 21.1088 11.9916 21.1455C11.2634 21.1459 10.334 20.0605 9.70169 18.25C9.62723 18.036 9.55873 17.82 9.49618 17.6021C10.3611 17.323 11.2061 16.9857 12.0254 16.5924C12.8521 16.9739 13.7031 17.3008 14.5727 17.5709C14.5252 17.7368 14.4737 17.9016 14.4182 18.0652ZM14.7804 16.741C14.2112 16.565 13.6198 16.3485 13.0183 16.0955C13.3574 15.917 13.699 15.7285 14.043 15.53C14.396 15.3262 14.7401 15.1172 15.0751 14.9031C15.0084 15.5204 14.91 16.1338 14.7804 16.741V16.741ZM15.2267 11.9983C15.2274 12.6056 15.2085 13.2124 15.1698 13.8187C14.6771 14.1522 14.157 14.4777 13.6158 14.7902C13.0769 15.1013 12.5429 15.3873 12.0191 15.6461C11.4679 15.3819 10.9273 15.0972 10.3973 14.7921C9.87034 14.4887 9.35545 14.1657 8.85264 13.8231C8.80668 13.2169 8.78353 12.6097 8.78318 12.0013L8.7833 12.0015C8.78288 11.3936 8.80553 10.7863 8.85124 10.1797C9.34379 9.84332 9.86015 9.51801 10.394 9.20978C10.9303 8.90009 11.471 8.61536 12.0087 8.3573C12.5531 8.62189 13.0877 8.90544 13.6125 9.20795C14.1391 9.51062 14.6555 9.83018 15.1615 10.1666C15.205 10.7762 15.2267 11.3868 15.2268 11.9983H15.2267ZM16.1834 6.90546C18.1048 6.53174 19.5534 6.78314 19.9163 7.41168C20.3029 8.0813 19.7489 9.56018 18.3625 11.118L18.3624 11.1181C18.2858 11.204 18.2064 11.2903 18.124 11.377C17.4485 10.7664 16.7322 10.2025 15.9801 9.68915C15.9042 8.79812 15.7687 7.91316 15.5746 7.04022C15.7815 6.98932 15.9844 6.9444 16.1834 6.90546V6.90546ZM16.0536 10.7902C16.5609 11.1606 17.0487 11.5571 17.5149 11.978C17.0507 12.4059 16.5645 12.8092 16.0582 13.1863C16.0737 12.7904 16.0813 12.3942 16.0811 11.9979C16.0809 11.5952 16.0717 11.1926 16.0536 10.7902V10.7902ZM19.9216 16.5789C19.5582 17.2101 18.1538 17.4733 16.2694 17.1168C16.0535 17.076 15.8319 17.0275 15.6047 16.9712C15.7941 16.087 15.9236 15.1911 15.9922 14.2894C16.743 13.7672 17.4571 13.1938 18.1292 12.5736C18.2469 12.6957 18.3587 12.8174 18.4649 12.9384V12.9383C19.0659 13.5919 19.5415 14.3505 19.8679 15.1763C19.9723 15.394 20.0309 15.6308 20.0402 15.872C20.0494 16.1133 20.0091 16.3539 19.9216 16.5789V16.5789Z" fill="white"/>
</svg>
